<mxfile host="Electron" agent="Mozilla/5.0 (Macintosh; Intel Mac OS X 10_15_7) AppleWebKit/537.36 (KHTML, like Gecko) draw.io/26.0.4 Chrome/128.0.6613.186 Electron/32.2.5 Safari/537.36" version="26.0.4">
  <diagram name="전체 시스템아키텍처" id="hOA7gLcNdfWCCMxwPziY">
    <mxGraphModel dx="1114" dy="901" grid="1" gridSize="10" guides="1" tooltips="1" connect="1" arrows="1" fold="1" page="1" pageScale="1" pageWidth="850" pageHeight="1100" math="0" shadow="0">
      <root>
        <mxCell id="0" />
        <mxCell id="1" parent="0" />
        <mxCell id="i17sqBSJvXkmUqJ-6s6w-1" value="UI" style="rounded=1;whiteSpace=wrap;html=1;" vertex="1" parent="1">
          <mxGeometry x="40" y="180" width="120" height="60" as="geometry" />
        </mxCell>
        <mxCell id="i17sqBSJvXkmUqJ-6s6w-6" style="edgeStyle=orthogonalEdgeStyle;rounded=0;orthogonalLoop=1;jettySize=auto;html=1;curved=1;" edge="1" parent="1" source="i17sqBSJvXkmUqJ-6s6w-2" target="i17sqBSJvXkmUqJ-6s6w-5">
          <mxGeometry relative="1" as="geometry">
            <Array as="points">
              <mxPoint x="400" y="355" />
              <mxPoint x="460" y="355" />
            </Array>
          </mxGeometry>
        </mxCell>
        <mxCell id="i17sqBSJvXkmUqJ-6s6w-8" style="edgeStyle=orthogonalEdgeStyle;rounded=0;orthogonalLoop=1;jettySize=auto;html=1;curved=1;" edge="1" parent="1" source="i17sqBSJvXkmUqJ-6s6w-2" target="i17sqBSJvXkmUqJ-6s6w-4">
          <mxGeometry relative="1" as="geometry" />
        </mxCell>
        <mxCell id="i17sqBSJvXkmUqJ-6s6w-10" style="edgeStyle=orthogonalEdgeStyle;rounded=0;orthogonalLoop=1;jettySize=auto;html=1;curved=1;" edge="1" parent="1" source="i17sqBSJvXkmUqJ-6s6w-2" target="i17sqBSJvXkmUqJ-6s6w-3">
          <mxGeometry relative="1" as="geometry" />
        </mxCell>
        <mxCell id="i17sqBSJvXkmUqJ-6s6w-2" value="Server" style="rounded=1;whiteSpace=wrap;html=1;verticalAlign=top;" vertex="1" parent="1">
          <mxGeometry x="270" y="120" width="155" height="270" as="geometry" />
        </mxCell>
        <mxCell id="i17sqBSJvXkmUqJ-6s6w-3" value="Airflow" style="rounded=1;whiteSpace=wrap;html=1;verticalAlign=top;" vertex="1" parent="1">
          <mxGeometry x="520" y="120" width="270" height="330" as="geometry" />
        </mxCell>
        <mxCell id="i17sqBSJvXkmUqJ-6s6w-4" value="PostgreSQL" style="shape=cylinder3;whiteSpace=wrap;html=1;boundedLbl=1;backgroundOutline=1;size=15;" vertex="1" parent="1">
          <mxGeometry x="260" y="490" width="100" height="80" as="geometry" />
        </mxCell>
        <mxCell id="i17sqBSJvXkmUqJ-6s6w-5" value="Shared Filesystem" style="shape=cylinder3;whiteSpace=wrap;html=1;boundedLbl=1;backgroundOutline=1;size=15;" vertex="1" parent="1">
          <mxGeometry x="410" y="480" width="100" height="80" as="geometry" />
        </mxCell>
        <mxCell id="i17sqBSJvXkmUqJ-6s6w-7" style="edgeStyle=orthogonalEdgeStyle;rounded=0;orthogonalLoop=1;jettySize=auto;html=1;curved=1;" edge="1" parent="1" source="i17sqBSJvXkmUqJ-6s6w-3" target="i17sqBSJvXkmUqJ-6s6w-5">
          <mxGeometry relative="1" as="geometry">
            <Array as="points">
              <mxPoint x="630" y="520" />
            </Array>
          </mxGeometry>
        </mxCell>
        <mxCell id="i17sqBSJvXkmUqJ-6s6w-11" value="Scheduler" style="rounded=1;whiteSpace=wrap;html=1;" vertex="1" parent="1">
          <mxGeometry x="550" y="180" width="120" height="60" as="geometry" />
        </mxCell>
        <mxCell id="i17sqBSJvXkmUqJ-6s6w-12" value="Executor" style="rounded=1;whiteSpace=wrap;html=1;" vertex="1" parent="1">
          <mxGeometry x="550" y="265" width="120" height="60" as="geometry" />
        </mxCell>
        <mxCell id="i17sqBSJvXkmUqJ-6s6w-13" value="Worker" style="rounded=1;whiteSpace=wrap;html=1;" vertex="1" parent="1">
          <mxGeometry x="585" y="350" width="120" height="60" as="geometry" />
        </mxCell>
        <mxCell id="i17sqBSJvXkmUqJ-6s6w-14" value="Metadata" style="shape=cylinder3;whiteSpace=wrap;html=1;boundedLbl=1;backgroundOutline=1;size=15;" vertex="1" parent="1">
          <mxGeometry x="680" y="210" width="100" height="80" as="geometry" />
        </mxCell>
        <mxCell id="i17sqBSJvXkmUqJ-6s6w-15" value="Worker" style="rounded=1;whiteSpace=wrap;html=1;" vertex="1" parent="1">
          <mxGeometry x="595" y="360" width="120" height="60" as="geometry" />
        </mxCell>
        <mxCell id="i17sqBSJvXkmUqJ-6s6w-16" value="Worker" style="rounded=1;whiteSpace=wrap;html=1;" vertex="1" parent="1">
          <mxGeometry x="605" y="370" width="120" height="60" as="geometry" />
        </mxCell>
        <mxCell id="i17sqBSJvXkmUqJ-6s6w-17" value="API" style="rounded=1;whiteSpace=wrap;html=1;" vertex="1" parent="1">
          <mxGeometry x="287.5" y="160" width="120" height="60" as="geometry" />
        </mxCell>
        <mxCell id="i17sqBSJvXkmUqJ-6s6w-18" value="UDF validator" style="rounded=1;whiteSpace=wrap;html=1;" vertex="1" parent="1">
          <mxGeometry x="287.5" y="240" width="120" height="60" as="geometry" />
        </mxCell>
        <mxCell id="i17sqBSJvXkmUqJ-6s6w-19" value="DAG Generator" style="rounded=1;whiteSpace=wrap;html=1;" vertex="1" parent="1">
          <mxGeometry x="287.5" y="320" width="120" height="60" as="geometry" />
        </mxCell>
        <mxCell id="i17sqBSJvXkmUqJ-6s6w-9" style="edgeStyle=orthogonalEdgeStyle;rounded=0;orthogonalLoop=1;jettySize=auto;html=1;curved=1;" edge="1" parent="1" source="i17sqBSJvXkmUqJ-6s6w-1" target="i17sqBSJvXkmUqJ-6s6w-17">
          <mxGeometry relative="1" as="geometry" />
        </mxCell>
      </root>
    </mxGraphModel>
  </diagram>
</mxfile>
